# xmcd CD database file
#
# Track frame offsets:
#	150
#	21344
#	47226
#	68792
#	85720
#	109432
#	136161
#	150079
#	168552
#	184624
#	204879
#	224009
#
# Disc length: 3168 seconds
#
# Revision: 0
# Processed by: cddbd v1.5.1PL0 Copyright (c) Steve Scherf et al.
# Submitted via: CDex 1.51
#
DISCID=a10c5e0c
DTITLE=Papa George Band - Down at the Station
DYEAR=2004
DGENRE=Blues
TTITLE0=Man With The Blues
TTITLE1=Blackjack
TTITLE2=Cleansin' My Soul
TTITLE3=Deadline Blues
TTITLE4=Forever Blue
TTITLE5=It's Flooding Down In Texas
TTITLE6=Blues With A Feelin'
TTITLE7=Moonshadows On Coconut Grove
TTITLE8=Sun Gonna Shine
TTITLE9=Long Time Dead
TTITLE10=The Station
TTITLE11=Barnes Station Blues
EXTD=YEAR: 2004
EXTT0=
EXTT1=
EXTT2=
EXTT3=
EXTT4=
EXTT5=
EXTT6=
EXTT7=
EXTT8=
EXTT9=
EXTT10=
EXTT11=
PLAYORDER=
